{
  "title": "Australia's Next Top Model - S10E03",
  "uid": 15961403,
  "size": 464163436,
  "categoryP": "video",
  "categoryS": "tv_shows",
  "magnet": "?xt=urn:btih:66584b47cda3136dd998e810309470b794894d1d&amp;dn=Australia%27s+Next+Top+Model+-+S10E03&amp;tr=udp%3A%2F%2Ftracker.leechers-paradise.org%3A6969&amp;tr=udp%3A%2F%2Fzer0day.ch%3A1337&amp;tr=udp%3A%2F%2Fopen.demonii.com%3A1337&amp;tr=udp%3A%2F%2Ftracker.coppersurfer.tk%3A6969&amp;tr=udp%3A%2F%2Fexodus.desync.com%3A6969",
  "seeders": 52,
  "leechers": 18,
  "uploader": "Bullrout",
  "files": 1,
  "time": 1475666445,
  "description": "Australia's Next Top Model - S10E03\r\n\r\nThe top eleven start their working model week walking for Swarovski at Mercedes Benz Fashion week Australia.\r\n\r\nComplete name : Australia's Next Top Model - S10E03.mp4\r\nFormat : MPEG-4\r\nFormat profile : Base Media / Version 2\r\nCodec ID : mp42 (mp42/isom/avc1)\r\nFile size : 443 MiB\r\nDuration : 56 min 0 s\r\nOverall bit rate mode : Variable\r\nOverall bit rate : 1 105 kb/s\r\n\r\nVideo\r\nID : 2\r\nFormat : AVC\r\nFormat/Info : Advanced Video Codec\r\nFormat profile :   \r\nFormat settings, CABAC : Yes\r\nFormat settings, ReFrames : 3 frames\r\nCodec ID : avc1\r\nCodec ID/Info : Advanced Video Coding\r\nDuration : 56 min 0 s\r\nBit rate mode : Variable\r\nBit rate : 973 kb/s\r\nMaximum bit rate : 1 000 kb/s\r\nWidth : 720 pixels\r\nHeight : 404 pixels\r\nDisplay aspect ratio : 16:9\r\nOriginal display aspect ratio : 16:9\r\nFrame rate mode : Constant\r\nFrame rate : 25.000 FPS\r\nStandard : PAL\r\nColor space : YUV\r\nChroma subsampling : 4:2:0\r\nBit depth : 8 bits\r\nScan type : Progressive\r\nBits/(Pixel*Frame) : 0.134\r\nStream size : 390 MiB (88%)\r\nWriting library : x264 core 112\r\nColor range : Limited\r\nColor primaries : BT.601 PAL\r\nTransfer characteristics : BT.470 System B, BT.470 System G\r\nMatrix coefficients : BT.601\r\n\r\nAudio\r\nID : 1\r\nFormat : AAC\r\nFormat/Info : Advanced Audio Codec\r\nFormat profile : LC\r\nCodec ID : 40\r\nDuration : 56 min 0 s\r\nBit rate mode : Variable\r\nBit rate : 128 kb/s\r\nMaximum bit rate : 576 kb/s\r\nChannel(s) : 2 channels\r\nChannel positions : Front: L R\r\nSampling rate : 48.0 kHz\r\nFrame rate : 46.875 FPS (1024 spf)\r\nCompression mode : Lossy\r\nStream size : 51.3 MiB (12%)",
  "parsed": {
    "xt": "urn:btih:66584b47cda3136dd998e810309470b794894d1d",
    "dn": "Australia's Next Top Model - S10E03",
    "tr": [
      "udp://exodus.desync.com:6969",
      "udp://open.demonii.com:1337",
      "udp://tracker.coppersurfer.tk:6969",
      "udp://tracker.leechers-paradise.org:6969",
      "udp://zer0day.ch:1337"
    ],
    "infoHash": "66584b47cda3136dd998e810309470b794894d1d",
    "infoHashBuffer": {
      "type": "Buffer",
      "data": [
        102,
        88,
        75,
        71,
        205,
        163,
        19,
        109,
        217,
        152,
        232,
        16,
        48,
        148,
        112,
        183,
        148,
        137,
        77,
        29
      ]
    },
    "name": "Australia's Next Top Model - S10E03",
    "announce": [
      "udp://exodus.desync.com:6969",
      "udp://open.demonii.com:1337",
      "udp://tracker.coppersurfer.tk:6969",
      "udp://tracker.leechers-paradise.org:6969",
      "udp://zer0day.ch:1337"
    ],
    "urlList": []
  },
  "previous": 28,
  "peers": 32,
  "last_updated": "2016-12-27T02:27:28.208Z"
}